<svg width="24" height="24" viewBox="0 0 24 24" fill="none" xmlns="http://www.w3.org/2000/svg">
<path fill-rule="evenodd" clip-rule="evenodd" d="M12 18.5C10.7746 18.5002 9.57409 18.154 8.53695 17.5014C7.49981 16.8487 6.66828 15.9162 6.13828 14.8113C5.60827 13.7065 5.40138 12.4743 5.54146 11.2569C5.68154 10.0396 6.1629 8.8866 6.93 7.931L16.069 17.069C14.9162 17.9972 13.48 18.5022 12 18.5ZM17.123 16.002C18.1001 14.7517 18.5861 13.1871 18.4893 11.6032C18.3925 10.0193 17.7197 8.52548 16.5976 7.40341C15.4755 6.28133 13.9817 5.60849 12.3978 5.5117C10.8139 5.41492 9.24934 5.90089 7.999 6.878L17.123 16.002ZM4 12C4 9.87827 4.84285 7.84344 6.34315 6.34315C7.84344 4.84285 9.87827 4 12 4C14.1217 4 16.1566 4.84285 17.6569 6.34315C19.1571 7.84344 20 9.87827 20 12C20 14.1217 19.1571 16.1566 17.6569 17.6569C16.1566 19.1571 14.1217 20 12 20C9.87827 20 7.84344 19.1571 6.34315 17.6569C4.84285 16.1566 4 14.1217 4 12Z" fill="black"/>
</svg>
