<svg width="40" height="40" viewBox="0 0 40 40" fill="none" xmlns="http://www.w3.org/2000/svg">
<g clip-path="url(#clip0_4384_18361)">
<path d="M35.3223 18.6863L28.7563 16.4994C26.1598 15.638 24.1122 13.6611 23.22 11.154L20.9551 4.81453C20.6463 3.94203 19.3537 3.94203 19.0449 4.81453L16.78 11.154C15.8878 13.6611 13.8402 15.638 11.2436 16.4994L4.67775 18.6863C3.77408 18.9844 3.77408 20.2324 4.67775 20.5307L11.2436 22.7174C13.8402 23.5788 15.8878 25.5558 16.78 28.0629L19.0449 34.4023C19.3537 35.2748 20.6463 35.2748 20.9551 34.4023L23.22 28.0629C24.1122 25.5558 26.1598 23.5788 28.7563 22.7174L35.3223 20.5307C36.2259 20.2324 36.2259 18.9844 35.3223 18.6863ZM27.6583 20.0778L24.3753 21.1712C23.0713 21.6019 22.0533 22.5959 21.6072 23.8439L20.4747 27.0137C20.3145 27.4555 19.6739 27.4555 19.5138 27.0137L18.3814 23.8439C17.9353 22.5849 16.9058 21.6019 15.6133 21.1712L12.3303 20.0778C11.8727 19.9232 11.8727 19.3047 12.3303 19.15L15.6133 18.0567C16.9173 17.626 17.9353 16.632 18.3814 15.384L19.5138 12.2142C19.6739 11.7725 20.3145 11.7725 20.4747 12.2142L21.6072 15.384C22.0533 16.643 23.0827 17.626 24.3753 18.0567L27.6583 19.15C28.1158 19.3047 28.1158 19.9232 27.6583 20.0778Z" fill="#212CFF"/>
</g>
<defs>
<clipPath id="clip0_4384_18361">
<rect width="32" height="32" fill="white" transform="translate(4 4)"/>
</clipPath>
</defs>
</svg>
