<svg width="708" height="145" viewBox="0 0 708 145" fill="none" xmlns="http://www.w3.org/2000/svg">
<rect x="0.335938" width="707" height="144.081" rx="72.0403" fill="#3858E9"/>
<path fill-rule="evenodd" clip-rule="evenodd" d="M95.2083 104.933L106.813 71.2004C108.978 65.7472 109.699 61.3933 109.699 57.5241C109.699 56.1218 109.605 54.8148 109.441 53.5943C112.405 59.0302 114.097 65.2798 114.097 71.9189C114.097 86.0107 106.504 98.3108 95.2083 104.933ZM81.336 54.0098C83.6209 53.8886 85.6824 53.6462 85.6824 53.6462C87.7267 53.4038 87.4862 50.3743 85.4419 50.4954C85.4419 50.4954 79.2917 50.9802 75.3147 50.9802C71.5781 50.9802 65.3077 50.4954 65.3077 50.4954C63.2548 50.3743 63.0228 53.525 65.0672 53.6462C65.0672 53.6462 67.0084 53.8886 69.0528 54.0098L74.9711 70.3175L66.6563 95.3851L52.8183 54.0098C55.1118 53.8886 57.1647 53.6462 57.1647 53.6462C59.209 53.4038 58.9685 50.3743 56.9242 50.4954C56.9242 50.4954 50.774 50.9802 46.797 50.9802C46.084 50.9802 45.2422 50.9629 44.3489 50.9369C51.1519 40.5757 62.8253 33.7289 76.1049 33.7289C86.0002 33.7289 95.0022 37.5289 101.762 43.7611C101.599 43.7525 101.436 43.7265 101.273 43.7265C97.5361 43.7265 94.8905 46.9984 94.8905 50.5041C94.8905 53.6549 96.6943 56.3122 98.627 59.463C100.07 62.0078 101.762 65.2711 101.762 69.9973C101.762 73.2692 100.8 77.3808 98.8675 82.3493L95.0795 95.0822L81.3446 54.0271L81.336 54.0098ZM76.1049 110.118C72.377 110.118 68.7779 109.564 65.3678 108.559L76.7663 75.2601L88.4482 107.426C88.5256 107.616 88.62 107.789 88.7231 107.954C84.7719 109.347 80.5286 110.118 76.1049 110.118ZM38.1042 71.9189C38.1042 66.3791 39.2896 61.1249 41.3941 56.3728L59.5183 106.292C46.8399 100.103 38.1042 87.0408 38.1042 71.9189ZM76.1049 29.4442C52.8011 29.4442 33.8438 48.5046 33.8438 71.9275C33.8438 95.3505 52.8011 114.411 76.1049 114.411C99.4087 114.411 118.366 95.3505 118.366 71.9275C118.366 48.5046 99.4087 29.4442 76.1049 29.4442Z" fill="white"/>
<path d="M200.314 44.5428L190.577 84.4876H190.105L179.689 44.5428H170.109L159.713 84.4579H159.212L149.475 44.5428H138.951L154.201 98.8594H163.86L174.698 60.742H175.12L185.939 98.8594H195.598L210.837 44.5428H200.314Z" fill="white"/>
<path d="M238.89 60.2209C235.992 58.4726 232.563 57.5935 228.603 57.5935C224.643 57.5935 221.214 58.4726 218.315 60.2209C215.416 61.9693 213.166 64.4288 211.574 67.5896C209.983 70.7504 209.187 74.4446 209.187 78.6524C209.187 82.8602 209.983 86.5347 211.574 89.6856C213.166 92.8365 215.416 95.2861 218.315 97.0345C221.214 98.7828 224.643 99.6619 228.603 99.6619C232.563 99.6619 235.992 98.7828 238.89 97.0345C241.789 95.2861 244.039 92.8365 245.631 89.6856C247.223 86.5347 248.019 82.8602 248.019 78.6524C248.019 74.4446 247.223 70.7602 245.631 67.5896C244.039 64.4288 241.789 61.9693 238.89 60.2209ZM237.269 85.3592C236.562 87.3743 235.481 88.9744 234.036 90.1696C232.592 91.3648 230.804 91.9574 228.652 91.9574C226.5 91.9574 224.633 91.3648 223.179 90.1696C221.725 88.9744 220.644 87.3743 219.936 85.3592C219.219 83.3442 218.865 81.102 218.865 78.6228C218.865 76.1435 219.219 73.8717 219.936 71.8468C220.644 69.8219 221.734 68.2118 223.179 67.0068C224.633 65.8017 226.451 65.1992 228.652 65.1992C230.853 65.1992 232.592 65.8017 234.036 67.0068C235.481 68.2118 236.552 69.8219 237.269 71.8468C237.986 73.8717 238.34 76.1336 238.34 78.6228C238.34 81.1119 237.986 83.3442 237.269 85.3592Z" fill="white"/>
<path d="M272.349 57.5471C270.031 57.5471 267.967 58.1892 266.159 59.4732C264.361 60.7573 263.084 62.5748 262.347 64.9256H261.924V58.1398H252.668V98.8747H262.219V74.9316C262.219 73.203 262.612 71.672 263.408 70.3385C264.204 69.0149 265.285 67.9778 266.67 67.2271C268.056 66.4764 269.608 66.1011 271.357 66.1011C272.163 66.1011 273.008 66.1603 273.872 66.269C274.747 66.3875 275.376 66.5159 275.788 66.6542V57.8237C275.346 57.7348 274.796 57.6656 274.138 57.6261C273.479 57.5866 272.88 57.557 272.359 57.557L272.349 57.5471Z" fill="white"/>
<path d="M305.334 64.8612H304.941C304.45 63.8735 303.752 62.8166 302.858 61.6905C301.964 60.5645 300.745 59.6064 299.212 58.7964C297.68 57.9963 295.734 57.5914 293.356 57.5914C290.241 57.5914 287.421 58.3914 284.886 59.9916C282.351 61.5918 280.347 63.9525 278.863 67.0738C277.379 70.1951 276.633 74.0177 276.633 78.5416C276.633 83.0655 277.36 86.819 278.824 89.9403C280.288 93.0714 282.273 95.4519 284.788 97.1015C287.303 98.751 290.153 99.5709 293.337 99.5709C295.655 99.5709 297.581 99.1856 299.114 98.4053C300.647 97.625 301.875 96.6866 302.809 95.5803C303.742 94.4741 304.45 93.427 304.941 92.4393H305.521V98.8597H314.914V44.5432H305.334V64.8612ZM304.41 85.4164C303.673 87.3919 302.593 88.9426 301.168 90.0489C299.743 91.1552 298.024 91.7083 295.999 91.7083C293.975 91.7083 292.148 91.1355 290.713 89.9995C289.278 88.8636 288.198 87.2931 287.471 85.3077C286.743 83.3223 286.38 81.0505 286.38 78.5021C286.38 75.9537 286.743 73.7312 287.461 71.7656C288.178 69.8 289.259 68.269 290.684 67.1528C292.108 66.0367 293.887 65.4835 296.009 65.4835C298.132 65.4835 299.802 66.0268 301.217 67.1034C302.632 68.1801 303.703 69.6913 304.44 71.6372C305.167 73.5831 305.53 75.8747 305.53 78.5021C305.53 81.1295 305.157 83.4409 304.42 85.4262L304.41 85.4164Z" fill="white"/>
<path d="M353.195 46.8739C350.375 45.3232 346.887 44.5428 342.731 44.5428H322.47V98.8594H332.256V80.5069H342.593C346.759 80.5069 350.267 79.7365 353.117 78.1857C355.966 76.6349 358.118 74.5113 359.582 71.8048C361.046 69.0984 361.773 66.0067 361.773 62.5199C361.773 59.0332 361.046 55.9909 359.602 53.2746C358.147 50.5583 356.015 48.4247 353.195 46.8739ZM350.69 67.6365C349.943 69.1181 348.793 70.2936 347.251 71.1332C345.698 71.9826 343.713 72.4074 341.286 72.4074H332.266V52.7609H341.237C343.684 52.7609 345.678 53.1758 347.241 53.9956C348.793 54.8155 349.953 55.9613 350.699 57.433C351.446 58.9048 351.82 60.5938 351.82 62.5298C351.82 64.4658 351.446 66.1648 350.699 67.6464L350.69 67.6365Z" fill="white"/>
<path d="M385.286 57.5471C382.967 57.5471 380.903 58.1892 379.095 59.4732C377.297 60.7573 376.02 62.5748 375.283 64.9256H374.86V58.1398H365.604V98.8747H375.155V74.9316C375.155 73.203 375.548 71.672 376.344 70.3385C377.14 69.0149 378.221 67.9778 379.606 67.2271C380.992 66.4764 382.544 66.1011 384.293 66.1011C385.099 66.1011 385.944 66.1603 386.809 66.269C387.683 66.3875 388.312 66.5159 388.725 66.6542V57.8237C388.283 57.7348 387.732 57.6656 387.074 57.6261C386.416 57.5866 385.816 57.557 385.296 57.557L385.286 57.5471Z" fill="white"/>
<path d="M421.455 62.5224C419.736 60.8432 417.77 59.5986 415.55 58.7986C413.329 57.9985 410.961 57.5935 408.465 57.5935C404.594 57.5935 401.224 58.4825 398.364 60.2604C395.495 62.0384 393.265 64.5177 391.673 67.6883C390.081 70.859 389.285 74.5433 389.285 78.7314C389.285 82.9195 390.081 86.6927 391.663 89.8338C393.245 92.9748 395.515 95.3948 398.453 97.1036C401.4 98.8124 404.898 99.6619 408.966 99.6619C412.111 99.6619 414.911 99.1779 417.358 98.2198C419.804 97.2518 421.809 95.8986 423.381 94.1404C424.953 92.3822 426.024 90.3178 426.584 87.9471L417.672 86.9396C417.25 88.0854 416.621 89.0534 415.795 89.8338C414.97 90.6141 413.997 91.1969 412.867 91.6018C411.737 92.0068 410.48 92.1945 409.094 92.1945C407.021 92.1945 405.203 91.75 403.66 90.8511C402.108 89.9622 400.909 88.6682 400.044 86.9791C399.209 85.3494 398.797 83.3936 398.767 81.1317H426.987V78.1882C426.987 74.6125 426.496 71.5406 425.513 68.9428C424.531 66.3549 423.175 64.2213 421.465 62.5421L421.455 62.5224ZM398.797 74.6421C398.885 73.0518 399.278 71.5603 400.015 70.1972C400.831 68.6662 401.98 67.4315 403.454 66.4833C404.928 65.535 406.647 65.0609 408.603 65.0609C410.43 65.0609 412.032 65.4758 413.417 66.3055C414.803 67.1352 415.874 68.2711 416.65 69.7132C417.426 71.1553 417.819 72.795 417.839 74.6322H398.806L398.797 74.6421Z" fill="white"/>
<path d="M452.79 75.6299L445.882 74.1482C443.828 73.6741 442.354 73.0617 441.46 72.3209C440.576 71.5801 440.134 70.6121 440.154 69.4268C440.134 68.0439 440.802 66.9278 442.148 66.0585C443.494 65.1893 445.155 64.7547 447.15 64.7547C448.623 64.7547 449.871 64.9918 450.893 65.4758C451.915 65.9598 452.731 66.5821 453.33 67.3624C453.939 68.1427 454.362 68.9724 454.607 69.8515L463.313 68.8934C462.665 65.4264 460.965 62.6804 458.233 60.6457C455.502 58.6109 451.758 57.5935 447.012 57.5935C443.779 57.5935 440.92 58.0973 438.454 59.1146C435.978 60.132 434.052 61.5643 432.676 63.4114C431.3 65.2585 430.613 67.4414 430.632 69.9503C430.613 72.9234 431.536 75.3731 433.403 77.309C435.27 79.245 438.139 80.618 442.03 81.428L448.938 82.8899C450.805 83.2948 452.18 83.8776 453.065 84.6382C453.949 85.3987 454.401 86.3667 454.401 87.5323C454.401 88.9151 453.713 90.0708 452.328 91.0092C450.942 91.9475 449.125 92.4118 446.855 92.4118C444.585 92.4118 442.875 91.9475 441.5 91.0092C440.124 90.0708 439.23 88.688 438.807 86.8409L429.492 87.7397C430.072 91.4833 431.88 94.4071 434.897 96.5011C437.923 98.5951 441.912 99.6421 446.874 99.6421C450.255 99.6421 453.242 99.089 455.845 97.9926C458.449 96.8962 460.483 95.375 461.957 93.4193C463.421 91.4635 464.168 89.2115 464.188 86.6433C464.168 83.7294 463.225 81.3687 461.348 79.5611C459.471 77.7535 456.622 76.4398 452.79 75.6101V75.6299Z" fill="white"/>
<path d="M490.1 75.6299L483.192 74.1482C481.138 73.6741 479.665 73.0617 478.77 72.3209C477.886 71.5801 477.444 70.6121 477.464 69.4268C477.444 68.0439 478.112 66.9278 479.458 66.0585C480.804 65.1893 482.465 64.7547 484.46 64.7547C485.933 64.7547 487.181 64.9918 488.203 65.4758C489.225 65.9598 490.041 66.5821 490.64 67.3624C491.249 68.1427 491.672 68.9724 491.917 69.8515L500.623 68.8934C499.975 65.4264 498.275 62.6804 495.543 60.6457C492.812 58.6109 489.068 57.5935 484.322 57.5935C481.089 57.5935 478.23 58.0973 475.764 59.1146C473.288 60.132 471.362 61.5643 469.986 63.4114C468.61 65.2585 467.923 67.4414 467.942 69.9503C467.923 72.9234 468.846 75.3731 470.713 77.309C472.58 79.245 475.449 80.618 479.34 81.428L486.248 82.8899C488.115 83.2948 489.49 83.8776 490.375 84.6382C491.259 85.3987 491.711 86.3667 491.711 87.5323C491.711 88.9151 491.023 90.0708 489.638 91.0092C488.252 91.9475 486.435 92.4118 484.165 92.4118C481.895 92.4118 480.185 91.9475 478.81 91.0092C477.434 90.0708 476.54 88.688 476.117 86.8409L466.802 87.7397C467.382 91.4833 469.19 94.4071 472.207 96.5011C475.233 98.5951 479.222 99.6421 484.184 99.6421C487.565 99.6421 490.552 99.089 493.155 97.9926C495.759 96.8962 497.793 95.375 499.267 93.4193C500.731 91.4635 501.478 89.2115 501.498 86.6433C501.478 83.7294 500.535 81.3687 498.658 79.5611C496.781 77.7535 493.932 76.4398 490.1 75.6101V75.6299Z" fill="white"/>
<path d="M511.667 87.8298C510.066 87.8298 508.69 88.3928 507.55 89.5287C506.41 90.6646 505.84 92.0178 505.86 93.6081C505.84 95.2379 506.401 96.6109 507.55 97.7468C508.69 98.8827 510.066 99.4457 511.667 99.4457C512.709 99.4457 513.662 99.1889 514.527 98.6654C515.401 98.1419 516.099 97.4406 516.639 96.5615C517.18 95.6725 517.455 94.6947 517.474 93.618C517.455 92.0277 516.875 90.6646 515.715 89.5386C514.556 88.4125 513.21 87.8397 511.667 87.8397V87.8298Z" fill="white"/>
<path d="M535.091 66.9179C536.565 65.8709 538.284 65.3375 540.239 65.3375C542.539 65.3375 544.386 65.9993 545.762 67.313C547.137 68.6267 548.022 70.2664 548.385 72.232H557.513C557.307 69.2984 556.442 66.7302 554.929 64.5275C553.416 62.3248 551.392 60.616 548.847 59.411C546.302 58.2059 543.394 57.5935 540.102 57.5935C536.142 57.5935 532.723 58.4825 529.824 60.2604C526.935 62.0384 524.695 64.5177 523.113 67.6883C521.531 70.859 520.735 74.5137 520.735 78.6524C520.735 82.7911 521.511 86.4063 523.074 89.5671C524.636 92.7279 526.857 95.1973 529.745 96.9752C532.634 98.763 536.103 99.652 540.151 99.652C543.541 99.652 546.499 99.0297 549.014 97.7852C551.529 96.5406 553.514 94.8022 554.978 92.5896C556.442 90.3671 557.278 87.8187 557.513 84.9345H548.385C548.1 86.4063 547.589 87.6508 546.833 88.6781C546.076 89.7053 545.143 90.4857 544.022 91.0289C542.902 91.5722 541.645 91.8389 540.239 91.8389C538.255 91.8389 536.525 91.3055 535.051 90.2387C533.587 89.172 532.448 87.6409 531.632 85.6457C530.816 83.6504 530.423 81.2699 530.423 78.4944C530.423 75.7188 530.836 73.3975 531.652 71.4418C532.467 69.4762 533.617 67.9748 535.091 66.9179Z" fill="white"/>
<path d="M589.635 60.2209C586.736 58.4726 583.307 57.5935 579.347 57.5935C575.387 57.5935 571.958 58.4726 569.059 60.2209C566.161 61.9693 563.91 64.4288 562.319 67.5896C560.727 70.7504 559.931 74.4446 559.931 78.6524C559.931 82.8602 560.727 86.5347 562.319 89.6856C563.91 92.8365 566.161 95.2861 569.059 97.0345C571.958 98.7828 575.387 99.6619 579.347 99.6619C583.307 99.6619 586.736 98.7828 589.635 97.0345C592.533 95.2861 594.783 92.8365 596.375 89.6856C597.967 86.5347 598.763 82.8602 598.763 78.6524C598.763 74.4446 597.967 70.7602 596.375 67.5896C594.783 64.4288 592.533 61.9693 589.635 60.2209ZM588.013 85.3592C587.306 87.3743 586.225 88.9744 584.781 90.1696C583.336 91.3648 581.548 91.9574 579.396 91.9574C577.244 91.9574 575.377 91.3648 573.923 90.1696C572.469 88.9744 571.388 87.3743 570.68 85.3592C569.963 83.3442 569.609 81.102 569.609 78.6228C569.609 76.1435 569.963 73.8717 570.68 71.8468C571.388 69.8219 572.479 68.2118 573.923 67.0068C575.377 65.8017 577.195 65.1992 579.396 65.1992C581.597 65.1992 583.336 65.8017 584.781 67.0068C586.225 68.2118 587.296 69.8219 588.013 71.8468C588.731 73.8717 589.084 76.1336 589.084 78.6228C589.084 81.1119 588.731 83.3442 588.013 85.3592Z" fill="white"/>
<path d="M656.863 61.146C654.505 58.7754 651.459 57.5901 647.735 57.5901C644.797 57.5901 642.262 58.2618 640.12 59.615C637.988 60.9683 636.465 62.7758 635.571 65.0378H635.148C634.372 62.7363 633.045 60.9189 631.149 59.5854C629.263 58.2519 626.944 57.5803 624.202 57.5803C621.461 57.5803 619.162 58.2421 617.206 59.5558C615.251 60.8695 613.856 62.6968 613.011 65.0279H612.539V58.1038H603.411V98.8387H612.961V74.0659C612.961 72.3867 613.295 70.9149 613.964 69.6506C614.632 68.3863 615.526 67.4084 616.656 66.7071C617.786 66.0058 619.034 65.6601 620.4 65.6601C622.424 65.6601 624.065 66.2922 625.322 67.5467C626.58 68.8011 627.209 70.4803 627.209 72.5842V98.8387H636.573V73.4337C636.573 71.1322 637.221 69.2654 638.509 67.8233C639.806 66.3811 641.604 65.6601 643.903 65.6601C645.839 65.6601 647.47 66.2527 648.806 67.4282C650.142 68.6036 650.811 70.4606 650.811 72.9793V98.8387H660.391V71.4977C660.391 66.954 659.212 63.4969 656.854 61.1263L656.863 61.146Z" fill="white"/>
</svg>
